<?xml version="1.0" encoding="UTF-8" standalone="no"?>
<!-- Created with Inkscape (http://www.inkscape.org/) -->

<svg
   width="77.538544mm"
   height="15.296636mm"
   viewBox="0 0 77.538544 15.296636"
   version="1.1"
   id="svg1"
   xml:space="preserve"
   xmlns="http://www.w3.org/2000/svg"
   xmlns:svg="http://www.w3.org/2000/svg"><defs
     id="defs1" /><g
     id="layer1"
     transform="translate(-92.911982,-128.73283)"><path
       style="fill:#ff6600;stroke-width:0.134502"
       d="m 126.55496,142.67778 c 2.5568,-3.10597 5.3321,-6.59566 7.93645,-9.73609 3.59547,-4.33384 3.52735,-4.25369 3.5648,-4.19422 1.64391,4.09457 3.23893,8.22014 4.80663,12.36041 l -5.21635,-0.0622 -3.43857,-0.027 2.00014,-2.50925 3.11738,0.042 -0.62187,-1.62248 c -1.32024,-3.44452 -1.23916,-3.50863 -1.3566,-3.39598 -0.031,0.0297 -1.4032,1.68693 -3.04943,3.68271 -1.87249,2.23819 -3.68225,4.4896 -5.51087,6.76753 -1.03819,0.0105 -3.3728,0.0809 -3.32665,0.0248 z"
       id="path3" /><path
       style="font-size:12.7px;font-family:Poppins;-inkscape-font-specification:Poppins;stroke-width:0.264583"
       d="m 97.915782,132.29603 v 0.9398 h -3.8481 v 2.9845 h 3.1242 v 0.9398 h -3.1242 v 3.9878 h -1.1557 v -8.8519 z m 5.410198,8.9408 q -1.2319,0 -2.2479,-0.5715 -1.016,-0.5842 -1.612902,-1.6129 -0.5842,-1.0414 -0.5842,-2.3368 0,-1.2954 0.5842,-2.3241 0.596902,-1.0414 1.612902,-1.6129 1.016,-0.5842 2.2479,-0.5842 1.2446,0 2.2606,0.5842 1.016,0.5715 1.6002,1.6002 0.5842,1.0287 0.5842,2.3368 0,1.3081 -0.5842,2.3368 -0.5842,1.0287 -1.6002,1.6129 -1.016,0.5715 -2.2606,0.5715 z m 0,-1.0033 q 0.9271,0 1.6637,-0.4318 0.7493,-0.4318 1.1684,-1.2319 0.4318,-0.8001 0.4318,-1.8542 0,-1.0668 -0.4318,-1.8542 -0.4191,-0.8001 -1.1557,-1.2319 -0.7366,-0.4318 -1.6764,-0.4318 -0.9398,0 -1.6764,0.4318 -0.7366,0.4318 -1.1684,1.2319 -0.4191,0.7874 -0.4191,1.8542 0,1.0541 0.4191,1.8542 0.4318,0.8001 1.1684,1.2319 0.7493,0.4318 1.6764,0.4318 z m 10.62989,0.9144 -2.1082,-3.6195 h -1.397 v 3.6195 h -1.1557 v -8.8519 h 2.8575 q 1.0033,0 1.6891,0.3429 0.6985,0.3429 1.0414,0.9271 0.3429,0.5842 0.3429,1.3335 0,0.9144 -0.5334,1.6129 -0.5207,0.6985 -1.5748,0.9271 l 2.2225,3.7084 z m -3.5052,-4.5466 h 1.7018 q 0.9398,0 1.4097,-0.4572 0.4699,-0.4699 0.4699,-1.2446 0,-0.7874 -0.4699,-1.2192 -0.4572,-0.4318 -1.4097,-0.4318 h -1.7018 z m 15.5448,-4.2418 v 8.7884 h -1.1557 v -6.5532 l -2.921,6.5532 h -0.8128 l -2.9337,-6.5659 v 6.5659 h -1.1557 v -8.7884 h 1.2446 l 3.2512,7.2644 3.2512,-7.2644 z"
       id="text9"
       aria-label="FORM" /><path
       style="font-size:12.7px;font-family:Poppins;-inkscape-font-specification:Poppins;stroke-width:0.264583"
       d="m 148.86059,132.34617 v 0.9398 h -2.413 v 7.9121 h -1.1557 v -7.9121 h -2.4257 v -0.9398 z m 2.57808,0 v 8.8519 h -1.1557 v -8.8519 z m 9.28368,0 -3.3401,8.8519 h -1.3335 l -3.3401,-8.8519 h 1.2319 l 2.7813,7.6327 2.7813,-7.6327 z m 5.28318,8.9408 q -1.2319,0 -2.2479,-0.5715 -1.016,-0.5842 -1.6129,-1.6129 -0.5842,-1.0414 -0.5842,-2.3368 0,-1.2954 0.5842,-2.3241 0.5969,-1.0414 1.6129,-1.6129 1.016,-0.5842 2.2479,-0.5842 1.2446,0 2.2606,0.5842 1.016,0.5715 1.6002,1.6002 0.5842,1.0287 0.5842,2.3368 0,1.3081 -0.5842,2.3368 -0.5842,1.0287 -1.6002,1.6129 -1.016,0.5715 -2.2606,0.5715 z m 0,-1.0033 q 0.9271,0 1.6637,-0.4318 0.7493,-0.4318 1.1684,-1.2319 0.4318,-0.8001 0.4318,-1.8542 0,-1.0668 -0.4318,-1.8542 -0.4191,-0.8001 -1.1557,-1.2319 -0.7366,-0.4318 -1.6764,-0.4318 -0.9398,0 -1.6764,0.4318 -0.7366,0.4318 -1.1684,1.2319 -0.4191,0.7874 -0.4191,1.8542 0,1.0541 0.4191,1.8542 0.4318,0.8001 1.1684,1.2319 0.7493,0.4318 1.6764,0.4318 z"
       id="text10"
       aria-label="TIVO" /></g></svg>
