<?xml version="1.0" encoding="UTF-8" standalone="no"?>
<!-- Created with Inkscape (http://www.inkscape.org/) -->

<svg
   width="75.866371mm"
   height="15.296644mm"
   viewBox="0 0 75.866371 15.296644"
   version="1.1"
   id="svg1"
   xml:space="preserve"
   xmlns="http://www.w3.org/2000/svg"
   xmlns:svg="http://www.w3.org/2000/svg"><defs
     id="defs1" /><g
     id="layer1"
     transform="translate(-56.052884,-99.76122)"><path
       style="fill:#ff6600;stroke-width:0.134502"
       d="m 89.261712,113.70617 c 2.556807,-3.10597 5.332101,-6.59566 7.936455,-9.73609 3.595473,-4.333837 3.527353,-4.253687 3.564803,-4.194217 1.64391,4.094567 3.23893,8.220137 4.80663,12.360407 l -5.21635,-0.0622 -3.43857,-0.027 2.00014,-2.50925 3.11738,0.042 -0.62187,-1.62248 c -1.32024,-3.44452 -1.23916,-3.50863 -1.3566,-3.39598 -0.031,0.0297 -1.403201,1.68693 -3.049438,3.68271 -1.872484,2.23819 -3.682241,4.4896 -5.510861,6.76753 -1.038193,0.0105 -3.372803,0.0809 -3.326658,0.0248 z"
       id="path2-1" /><text
       xml:space="preserve"
       style="font-style:normal;font-variant:normal;font-weight:normal;font-stretch:normal;font-size:12.7px;font-family:'Noto Sans CJK KR';-inkscape-font-specification:'Noto Sans CJK KR';fill:#b0bec5;fill-opacity:1;stroke:none;stroke-width:0.264583"
       x="54.770184"
       y="112.13569"
       id="text3"><tspan
         id="tspan3"
         style="fill:#b0bec5;fill-opacity:1;stroke-width:0.264583"
         x="54.770184"
         y="112.13569">FORM</tspan></text><text
       xml:space="preserve"
       style="font-style:normal;font-variant:normal;font-weight:normal;font-stretch:normal;font-size:12.7px;font-family:'Noto Sans CJK KR';-inkscape-font-specification:'Noto Sans CJK KR';fill:#b0bec5;fill-opacity:1;stroke:none;stroke-width:0.264583"
       x="104.74132"
       y="112.18583"
       id="text4"><tspan
         id="tspan4"
         style="fill:#b0bec5;fill-opacity:1;stroke-width:0.264583"
         x="104.74132"
         y="112.18583">TIVO</tspan></text></g></svg>
